<svg width="48" height="48" viewBox="0 0 48 48" fill="none" xmlns="http://www.w3.org/2000/svg">
<rect width="48" height="48" rx="4" fill="white"/>
<path d="M10.6666 14.6666L20 10.6666L28 14.6666L36.404 11.0653C36.5054 11.0218 36.6161 11.0042 36.726 11.014C36.8359 11.0238 36.9417 11.0608 37.0338 11.1216C37.126 11.1824 37.2016 11.2651 37.2538 11.3624C37.3061 11.4596 37.3334 11.5682 37.3333 11.6786V33.3333L28 37.3333L20 33.3333L11.596 36.9346C11.4945 36.9781 11.3839 36.9957 11.2739 36.9859C11.164 36.9761 11.0582 36.9391 10.9661 36.8783C10.874 36.8175 10.7984 36.7348 10.7461 36.6376C10.6938 36.5403 10.6665 36.4317 10.6666 36.3213V14.6666ZM28 34.352V17.568L27.9133 17.6053L20 13.648V30.432L20.0866 30.3946L28 34.352Z" fill="black"/>
</svg>
